<?xml version="1.0" encoding="UTF-8"?>
<!DOCTYPE svg PUBLIC "-//W3C//DTD SVG 1.1//EN" "http://www.w3.org/Graphics/SVG/1.1/DTD/svg11.dtd">
<svg xmlns="http://www.w3.org/2000/svg" xmlns:xlink="http://www.w3.org/1999/xlink" version="1.1" width="201px" height="201px" viewBox="-0.5 -0.5 201 201"><defs/><g><path d="M 25 5 L 195 5 L 195 195 L 5 195 L 5 25 Z" fill="rgb(255, 255, 255)" stroke="#666666" stroke-width="2" stroke-miterlimit="10" transform="translate(100,0)scale(-1,1)translate(-100,0)" pointer-events="none"/><rect x="15" y="15" width="110" height="10" fill="#b3b3b3" stroke="none" pointer-events="none"/><rect x="15" y="35" width="170" height="60" fill="#e6e6e6" stroke="none" pointer-events="none"/><rect x="15" y="105" width="120" height="80" fill="none" stroke="#b3b3b3" stroke-width="0.5" pointer-events="none"/><ellipse cx="46" cy="135" rx="5" ry="5" fill="none" stroke="#666666" pointer-events="none"/><ellipse cx="46" cy="155" rx="5" ry="5" fill="none" stroke="#666666" pointer-events="none"/><ellipse cx="76" cy="115" rx="5" ry="5" fill="none" stroke="#666666" pointer-events="none"/><ellipse cx="76" cy="135" rx="5" ry="5" fill="none" stroke="#666666" pointer-events="none"/><ellipse cx="76" cy="155" rx="5" ry="5" fill="none" stroke="#666666" pointer-events="none"/><ellipse cx="76" cy="175" rx="5" ry="5" fill="none" stroke="#666666" pointer-events="none"/><path d="M 111 125 L 129.88 125" fill="none" stroke="#4d4d4d" stroke-width="0.5" stroke-miterlimit="10" pointer-events="none"/><path d="M 123.94 128.25 L 130.44 125 L 123.94 121.75" fill="none" stroke="#4d4d4d" stroke-width="0.5" stroke-miterlimit="10" pointer-events="none"/><ellipse cx="106" cy="125" rx="5" ry="5" fill="none" stroke="#666666" pointer-events="none"/><ellipse cx="106" cy="145" rx="5" ry="5" fill="none" stroke="#666666" pointer-events="none"/><ellipse cx="106" cy="165" rx="5" ry="5" fill="none" stroke="#666666" pointer-events="none"/><path d="M 49.54 131.46 L 71 115" fill="none" stroke="#4d4d4d" stroke-width="0.5" stroke-miterlimit="10" pointer-events="none"/><path d="M 51 135 L 71 135" fill="none" stroke="#4d4d4d" stroke-width="0.5" stroke-miterlimit="10" pointer-events="none"/><path d="M 49.54 138.54 L 72.46 151.46" fill="none" stroke="#4d4d4d" stroke-width="0.5" stroke-miterlimit="10" pointer-events="none"/><path d="M 46 140 L 72.46 171.46" fill="none" stroke="#4d4d4d" stroke-width="0.5" stroke-miterlimit="10" pointer-events="none"/><path d="M 46 150 L 72.46 118.54" fill="none" stroke="#4d4d4d" stroke-width="0.5" stroke-miterlimit="10" pointer-events="none"/><path d="M 49.54 151.46 L 72.46 138.54" fill="none" stroke="#4d4d4d" stroke-width="0.5" stroke-miterlimit="10" pointer-events="none"/><path d="M 51 155 L 71 155" fill="none" stroke="#4d4d4d" stroke-width="0.5" stroke-miterlimit="10" pointer-events="none"/><path d="M 49.54 158.54 L 71 175" fill="none" stroke="#4d4d4d" stroke-width="0.5" stroke-miterlimit="10" pointer-events="none"/><path d="M 81 115 L 102.46 121.46" fill="none" stroke="#4d4d4d" stroke-width="0.5" stroke-miterlimit="10" pointer-events="none"/><path d="M 79.54 118.54 L 106 140" fill="none" stroke="#4d4d4d" stroke-width="0.5" stroke-miterlimit="10" pointer-events="none"/><path d="M 76 120 L 106 160" fill="none" stroke="#4d4d4d" stroke-width="0.5" stroke-miterlimit="10" pointer-events="none"/><path d="M 79.54 131.46 L 101 125" fill="none" stroke="#4d4d4d" stroke-width="0.5" stroke-miterlimit="10" pointer-events="none"/><path d="M 79.54 151.46 L 102.46 128.54" fill="none" stroke="#4d4d4d" stroke-width="0.5" stroke-miterlimit="10" pointer-events="none"/><path d="M 76 170 L 106 130" fill="none" stroke="#4d4d4d" stroke-width="0.5" stroke-miterlimit="10" pointer-events="none"/><path d="M 81 135 L 102.46 141.46" fill="none" stroke="#4d4d4d" stroke-width="0.5" stroke-miterlimit="10" pointer-events="none"/><path d="M 81 155 L 101 145" fill="none" stroke="#4d4d4d" stroke-width="0.5" stroke-miterlimit="10" pointer-events="none"/><path d="M 79.54 171.46 L 102.46 148.54" fill="none" stroke="#4d4d4d" stroke-width="0.5" stroke-miterlimit="10" pointer-events="none"/><path d="M 79.54 138.54 L 102.46 161.46" fill="none" stroke="#4d4d4d" stroke-width="0.5" stroke-miterlimit="10" pointer-events="none"/><path d="M 79.54 158.54 L 101 165" fill="none" stroke="#4d4d4d" stroke-width="0.5" stroke-miterlimit="10" pointer-events="none"/><path d="M 81 175 L 102.46 168.54" fill="none" stroke="#4d4d4d" stroke-width="0.5" stroke-miterlimit="10" pointer-events="none"/><path d="M 111 145 L 129.88 145" fill="none" stroke="#4d4d4d" stroke-width="0.5" stroke-miterlimit="10" pointer-events="none"/><path d="M 123.94 148.25 L 130.44 145 L 123.94 141.75" fill="none" stroke="#4d4d4d" stroke-width="0.5" stroke-miterlimit="10" pointer-events="none"/><path d="M 111 165 L 129.88 165" fill="none" stroke="#4d4d4d" stroke-width="0.5" stroke-miterlimit="10" pointer-events="none"/><path d="M 123.94 168.25 L 130.44 165 L 123.94 161.75" fill="none" stroke="#4d4d4d" stroke-width="0.5" stroke-miterlimit="10" pointer-events="none"/><path d="M 24 135 L 41 135" fill="none" stroke="#4d4d4d" stroke-width="0.5" stroke-miterlimit="10" pointer-events="none"/><ellipse cx="21" cy="135" rx="3" ry="3" fill="#4d4d4d" stroke="#4d4d4d" stroke-width="0.5" pointer-events="none"/><path d="M 24 155 L 41 155" fill="none" stroke="#4d4d4d" stroke-width="0.5" stroke-miterlimit="10" pointer-events="none"/><ellipse cx="21" cy="155" rx="3" ry="3" fill="#4d4d4d" stroke="#4d4d4d" stroke-width="0.5" pointer-events="none"/><ellipse cx="165" cy="165" rx="20" ry="20" fill="#97d077" stroke="none" pointer-events="none"/><path d="M 155.09 168.67 C 155.3 168 155.83 167.43 156.56 167.12 C 157.28 166.81 158.12 166.78 158.88 167.03 C 159.97 167.49 160.82 168.3 161.25 169.29 C 163.2 164.48 166.17 160.03 170.01 156.17 C 171.1 155.31 172.63 155 174.04 155.35 C 174.4 155.4 174.71 155.6 174.86 155.89 C 175 156.19 174.96 156.52 174.75 156.78 C 169.54 161.88 165.65 167.9 163.38 174.42 C 162.04 175 160.46 175 159.11 174.42 C 158.1 172.47 156.74 170.67 155.09 169.08 C 155 168.96 155 168.8 155.09 168.67 Z" fill="rgb(255, 255, 255)" stroke="#97d077" stroke-width="0.5" stroke-miterlimit="10" pointer-events="none"/><path d="M 145 112 C 145 108.13 153.95 105 165 105 C 170.3 105 175.39 105.74 179.14 107.05 C 182.89 108.36 185 110.14 185 112 L 185 128 C 185 131.87 176.05 135 165 135 C 153.95 135 145 131.87 145 128 Z" fill="rgb(255, 255, 255)" stroke="rgb(0, 0, 0)" stroke-width="0.5" stroke-miterlimit="10" pointer-events="none"/><path d="M 185 112 C 185 115.87 176.05 119 165 119 C 153.95 119 145 115.87 145 112" fill="none" stroke="rgb(0, 0, 0)" stroke-width="0.5" stroke-miterlimit="10" pointer-events="none"/></g></svg>